<svg xmlns="http://www.w3.org/2000/svg" x="0px" y="0px" width="100" height="100" viewBox="0,0,256,256">
<g transform="translate(-14.08,-14.08) scale(1.11,1.11)"><g fill="#f50057" fill-rule="nonzero" stroke="none" stroke-width="1" stroke-linecap="butt" stroke-linejoin="miter" stroke-miterlimit="10" stroke-dasharray="" stroke-dashoffset="0" font-family="none" font-weight="none" font-size="none" text-anchor="none" style="mix-blend-mode: normal"><g transform="scale(5.33333,5.33333)"><path d="M24.5,32.88c0,0 -0.01,-0.04 -0.02,-0.12c0.02,0.08 0.02,0.12 0.02,0.12z"></path><path d="M27.375,8.625c0,0 -0.375,-1.375 0.125,-2.5c0.5,-1.125 0.5,-1.875 -0.5,-3c2,-0.125 2.75,1.25 2.75,1.25l0.025,0.159c0.118,0.766 -0.278,1.494 -0.946,1.888c-0.61,0.359 -1.266,1.015 -1.454,2.203z"></path><path d="M41.63,36.24c0.02,-0.21 0.34,-3.04 -0.38,-4.36c-1.5,4.24 -3,8.12 -7.37,10.87c0.62,-1.25 1.62,-3.25 2.62,-6.25c-3,4 -9,8 -13.5,8.25c3.04,-1.68 4.75,-3.84 5.5,-5.25c0,0 -1.75,0.5 -3.88,0.75c2.88,-1.75 4.88,-4.87 3.88,-9.75c-2,6.25 -4.75,8.25 -8.38,8.62c-3.62,0.38 -6.87,-1.5 -6.87,-1.5l1.25,-0.12c0,0 -3.25,-2.5 -2.12,-5.75c0.05,-0.16 0.11,-0.31 0.18,-0.45c0.82,-1.82 3.61,-0.9 3.32,1.07v0.01c0,0 0.87,2.37 3.24,1.74c0.76,-1.24 1.26,-2.5 1.26,-2.5l0.37,1.63c0,0 1.75,-0.75 1.75,-2.13c1.5,0.57 1.88,1.28 1.97,1.59c-0.26,-1.4 -2.52,-11.03 -14.49,-10.89l-2.09,1.94c-0.14,0.13 -0.36,0.02 -0.34,-0.16l0.16,-1.6l0.14,-0.14c-0.04,0.01 -0.09,0 -0.13,0l-0.01,0.14l-0.82,0.76c-0.14,0.13 -0.36,0.02 -0.34,-0.16l0.1,-1.02c-1.74,-0.74 -1.9,-2.7 -1.9,-2.7c0,0 -2.17,-0.61 -1.25,-3.38c0.5,-1.5 1.7,-1.65 2.21,-1.53c0.65,0.15 1.32,0.16 1.94,-0.09c0.9,-0.36 2.05,-1.05 2.85,-2.38c1.5,-2.5 3.75,-3.5 8.62,-3.5c6.45,0 9.05,1.98 9.35,2.22c-0.18,-0.21 -1.27,-1.66 1.03,-3.84c2.27,-2.16 1.86,-2.67 1.77,-2.75c0.34,0.1 4.75,1.6 5.23,7.37c0.5,6 -6.5,7.25 -6.5,7.25c0,0 9,1.75 9.12,-6.75c1.76,1 5.38,4.75 5.88,12.88c0.49,7.88 -3.16,11.65 -3.37,11.86z"></path><path d="M7.85,21.86l-0.14,0.14l0.01,-0.14c0.04,0 0.09,0.01 0.13,0z"></path><path d="M7.85,21.86l-0.14,0.14l0.01,-0.14c0.04,0 0.09,0.01 0.13,0z"></path></g></g></g>
</svg>