<svg width="485" height="100" viewBox="0 0 485 100" fill="none" xmlns="http://www.w3.org/2000/svg">
<path d="M32.8293 66L12.6993 41.778L32.3013 19.602H43.5213L21.6753 43.692L21.7413 39.534L44.2473 66H32.8293ZM4.77934 66V19.602H13.7553V66H4.77934ZM59.662 66.66C56.758 66.66 54.14 65.934 51.808 64.482C49.476 63.03 47.65 61.05 46.33 58.542C45.01 56.034 44.35 53.218 44.35 50.094C44.35 46.926 45.01 44.088 46.33 41.58C47.65 39.072 49.476 37.092 51.808 35.64C54.14 34.188 56.758 33.462 59.662 33.462C61.95 33.462 63.996 33.924 65.8 34.848C67.604 35.772 69.034 37.07 70.09 38.742C71.19 40.37 71.784 42.218 71.872 44.286V55.77C71.784 57.882 71.19 59.752 70.09 61.38C69.034 63.008 67.604 64.306 65.8 65.274C63.996 66.198 61.95 66.66 59.662 66.66ZM61.246 58.674C63.666 58.674 65.624 57.882 67.12 56.298C68.616 54.67 69.364 52.58 69.364 50.028C69.364 48.356 69.012 46.882 68.308 45.606C67.648 44.286 66.702 43.274 65.47 42.57C64.282 41.822 62.874 41.448 61.246 41.448C59.662 41.448 58.254 41.822 57.022 42.57C55.834 43.274 54.888 44.286 54.184 45.606C53.524 46.882 53.194 48.356 53.194 50.028C53.194 51.744 53.524 53.262 54.184 54.582C54.888 55.858 55.834 56.87 57.022 57.618C58.254 58.322 59.662 58.674 61.246 58.674ZM68.902 66V57.42L70.288 49.632L68.902 41.976V34.122H77.482V66H68.902ZM85.1307 66V34.122H93.7767V66H85.1307ZM93.7767 48.378L90.4107 46.134C90.8067 42.218 91.9507 39.138 93.8427 36.894C95.7347 34.606 98.4627 33.462 102.027 33.462C103.567 33.462 104.953 33.726 106.185 34.254C107.417 34.738 108.539 35.552 109.551 36.696L104.139 42.9C103.655 42.372 103.061 41.976 102.357 41.712C101.697 41.448 100.927 41.316 100.047 41.316C98.1987 41.316 96.6807 41.91 95.4927 43.098C94.3487 44.242 93.7767 46.002 93.7767 48.378ZM134.038 66V47.718C134.038 45.826 133.444 44.286 132.256 43.098C131.068 41.91 129.528 41.316 127.636 41.316C126.404 41.316 125.304 41.58 124.336 42.108C123.368 42.636 122.598 43.384 122.026 44.352C121.498 45.32 121.234 46.442 121.234 47.718L117.868 46.002C117.868 43.494 118.396 41.316 119.452 39.468C120.508 37.576 121.96 36.102 123.808 35.046C125.7 33.99 127.856 33.462 130.276 33.462C132.696 33.462 134.83 33.99 136.678 35.046C138.57 36.102 140.044 37.554 141.1 39.402C142.156 41.25 142.684 43.384 142.684 45.804V66H134.038ZM112.588 66V18.282H121.234V66H112.588ZM163.112 66.66C160.164 66.66 157.524 65.934 155.192 64.482C152.86 63.03 151.012 61.05 149.648 58.542C148.328 56.034 147.668 53.218 147.668 50.094C147.668 46.926 148.328 44.088 149.648 41.58C151.012 39.072 152.838 37.092 155.126 35.64C157.458 34.188 160.12 33.462 163.112 33.462C165.4 33.462 167.446 33.924 169.25 34.848C171.098 35.772 172.572 37.07 173.672 38.742C174.816 40.37 175.432 42.218 175.52 44.286V55.638C175.432 57.706 174.838 59.576 173.738 61.248C172.638 62.92 171.164 64.24 169.316 65.208C167.468 66.176 165.4 66.66 163.112 66.66ZM164.564 58.674C166.192 58.674 167.6 58.322 168.788 57.618C170.02 56.87 170.966 55.858 171.626 54.582C172.33 53.262 172.682 51.744 172.682 50.028C172.682 48.356 172.33 46.882 171.626 45.606C170.966 44.286 170.02 43.274 168.788 42.57C167.6 41.822 166.214 41.448 164.63 41.448C163.002 41.448 161.572 41.822 160.34 42.57C159.152 43.318 158.206 44.33 157.502 45.606C156.842 46.882 156.512 48.356 156.512 50.028C156.512 51.744 156.842 53.262 157.502 54.582C158.206 55.858 159.174 56.87 160.406 57.618C161.638 58.322 163.024 58.674 164.564 58.674ZM180.8 66H172.22V57.42L173.606 49.632L172.154 41.976V18.282H180.8V66ZM203.431 66.66C200.219 66.66 197.315 65.934 194.719 64.482C192.167 62.986 190.121 60.984 188.581 58.476C187.085 55.924 186.337 53.086 186.337 49.962C186.337 46.838 187.085 44.044 188.581 41.58C190.077 39.072 192.123 37.092 194.719 35.64C197.315 34.144 200.197 33.396 203.365 33.396C206.621 33.396 209.525 34.144 212.077 35.64C214.673 37.092 216.719 39.072 218.215 41.58C219.711 44.044 220.459 46.838 220.459 49.962C220.459 53.086 219.711 55.924 218.215 58.476C216.719 60.984 214.673 62.986 212.077 64.482C209.525 65.934 206.643 66.66 203.431 66.66ZM203.365 58.608C204.993 58.608 206.423 58.256 207.655 57.552C208.931 56.804 209.899 55.792 210.559 54.516C211.263 53.196 211.615 51.7 211.615 50.028C211.615 48.356 211.263 46.882 210.559 45.606C209.855 44.33 208.887 43.34 207.655 42.636C206.423 41.888 204.993 41.514 203.365 41.514C201.781 41.514 200.373 41.888 199.141 42.636C197.909 43.34 196.941 44.33 196.237 45.606C195.533 46.882 195.181 48.356 195.181 50.028C195.181 51.7 195.533 53.196 196.237 54.516C196.941 55.792 197.909 56.804 199.141 57.552C200.373 58.256 201.781 58.608 203.365 58.608ZM223.808 36.828L222.026 18.282H230.87L229.088 36.828H223.808ZM246.843 66.726C245.039 66.726 243.257 66.484 241.497 66C239.781 65.516 238.197 64.856 236.745 64.02C235.293 63.14 234.039 62.084 232.983 60.852L238.131 55.638C239.231 56.87 240.507 57.794 241.959 58.41C243.411 59.026 245.017 59.334 246.777 59.334C248.185 59.334 249.241 59.136 249.945 58.74C250.693 58.344 251.067 57.75 251.067 56.958C251.067 56.078 250.671 55.396 249.879 54.912C249.131 54.428 248.141 54.032 246.909 53.724C245.677 53.372 244.379 52.998 243.015 52.602C241.695 52.162 240.419 51.612 239.187 50.952C237.955 50.248 236.943 49.302 236.151 48.114C235.403 46.882 235.029 45.298 235.029 43.362C235.029 41.338 235.513 39.578 236.481 38.082C237.493 36.586 238.923 35.42 240.771 34.584C242.619 33.748 244.797 33.33 247.305 33.33C249.945 33.33 252.321 33.792 254.433 34.716C256.589 35.64 258.371 37.026 259.779 38.874L254.565 44.088C253.597 42.9 252.497 42.042 251.265 41.514C250.077 40.986 248.779 40.722 247.371 40.722C246.095 40.722 245.105 40.92 244.401 41.316C243.741 41.712 243.411 42.262 243.411 42.966C243.411 43.758 243.785 44.374 244.533 44.814C245.325 45.254 246.337 45.65 247.569 46.002C248.801 46.31 250.077 46.684 251.397 47.124C252.761 47.52 254.037 48.092 255.225 48.84C256.457 49.588 257.447 50.578 258.195 51.81C258.987 53.042 259.383 54.626 259.383 56.562C259.383 59.686 258.261 62.172 256.017 64.02C253.773 65.824 250.715 66.726 246.843 66.726ZM300.543 66.66C297.155 66.66 294.009 66.066 291.105 64.878C288.201 63.646 285.649 61.952 283.449 59.796C281.293 57.596 279.621 55.044 278.433 52.14C277.289 49.236 276.717 46.112 276.717 42.768C276.717 39.424 277.289 36.3 278.433 33.396C279.621 30.492 281.293 27.962 283.449 25.806C285.649 23.65 288.179 21.956 291.039 20.724C293.943 19.492 297.111 18.876 300.543 18.876C304.239 18.876 307.495 19.492 310.311 20.724C313.127 21.912 315.613 23.562 317.769 25.674L311.697 31.746C310.421 30.338 308.859 29.238 307.011 28.446C305.163 27.654 303.007 27.258 300.543 27.258C298.387 27.258 296.407 27.632 294.603 28.38C292.843 29.084 291.303 30.14 289.983 31.548C288.663 32.912 287.651 34.562 286.947 36.498C286.243 38.39 285.891 40.48 285.891 42.768C285.891 45.1 286.243 47.212 286.947 49.104C287.651 50.996 288.663 52.646 289.983 54.054C291.303 55.418 292.843 56.474 294.603 57.222C296.407 57.97 298.387 58.344 300.543 58.344C303.139 58.344 305.361 57.948 307.209 57.156C309.101 56.364 310.685 55.242 311.961 53.79L318.033 59.862C315.877 62.018 313.369 63.69 310.509 64.878C307.649 66.066 304.327 66.66 300.543 66.66ZM337.494 66.66C334.282 66.66 331.378 65.934 328.782 64.482C326.23 62.986 324.184 60.984 322.644 58.476C321.148 55.924 320.4 53.086 320.4 49.962C320.4 46.838 321.148 44.044 322.644 41.58C324.14 39.072 326.186 37.092 328.782 35.64C331.378 34.144 334.26 33.396 337.428 33.396C340.684 33.396 343.588 34.144 346.14 35.64C348.736 37.092 350.782 39.072 352.278 41.58C353.774 44.044 354.522 46.838 354.522 49.962C354.522 53.086 353.774 55.924 352.278 58.476C350.782 60.984 348.736 62.986 346.14 64.482C343.588 65.934 340.706 66.66 337.494 66.66ZM337.428 58.608C339.056 58.608 340.486 58.256 341.718 57.552C342.994 56.804 343.962 55.792 344.622 54.516C345.326 53.196 345.678 51.7 345.678 50.028C345.678 48.356 345.326 46.882 344.622 45.606C343.918 44.33 342.95 43.34 341.718 42.636C340.486 41.888 339.056 41.514 337.428 41.514C335.844 41.514 334.436 41.888 333.204 42.636C331.972 43.34 331.004 44.33 330.3 45.606C329.596 46.882 329.244 48.356 329.244 50.028C329.244 51.7 329.596 53.196 330.3 54.516C331.004 55.792 331.972 56.804 333.204 57.552C334.436 58.256 335.844 58.608 337.428 58.608ZM360.088 66V34.122H368.734V66H360.088ZM368.734 48.378L365.368 46.134C365.764 42.218 366.908 39.138 368.8 36.894C370.692 34.606 373.42 33.462 376.984 33.462C378.524 33.462 379.91 33.726 381.142 34.254C382.374 34.738 383.496 35.552 384.508 36.696L379.096 42.9C378.612 42.372 378.018 41.976 377.314 41.712C376.654 41.448 375.884 41.316 375.004 41.316C373.156 41.316 371.638 41.91 370.45 43.098C369.306 44.242 368.734 46.002 368.734 48.378ZM408.866 66V47.718C408.866 45.826 408.272 44.286 407.084 43.098C405.896 41.91 404.356 41.316 402.464 41.316C401.232 41.316 400.132 41.58 399.164 42.108C398.196 42.636 397.426 43.384 396.854 44.352C396.326 45.32 396.062 46.442 396.062 47.718L392.696 46.002C392.696 43.494 393.224 41.316 394.28 39.468C395.38 37.576 396.876 36.102 398.768 35.046C400.704 33.99 402.882 33.462 405.302 33.462C407.634 33.462 409.724 34.056 411.572 35.244C413.42 36.388 414.872 37.906 415.928 39.798C416.984 41.646 417.512 43.648 417.512 45.804V66H408.866ZM387.416 66V34.122H396.062V66H387.416ZM439.722 66.66C436.378 66.66 433.408 65.956 430.812 64.548C428.216 63.096 426.148 61.116 424.608 58.608C423.112 56.1 422.364 53.24 422.364 50.028C422.364 46.86 423.09 44.044 424.542 41.58C426.038 39.072 428.062 37.092 430.614 35.64C433.166 34.144 436.004 33.396 439.128 33.396C442.208 33.396 444.914 34.1 447.246 35.508C449.622 36.872 451.47 38.764 452.79 41.184C454.154 43.56 454.836 46.266 454.836 49.302C454.836 49.874 454.792 50.468 454.704 51.084C454.66 51.656 454.55 52.316 454.374 53.064L427.578 53.13V46.662L450.348 46.596L446.85 49.302C446.762 47.41 446.41 45.826 445.794 44.55C445.222 43.274 444.364 42.306 443.22 41.646C442.12 40.942 440.756 40.59 439.128 40.59C437.412 40.59 435.916 40.986 434.64 41.778C433.364 42.526 432.374 43.604 431.67 45.012C431.01 46.376 430.68 48.004 430.68 49.896C430.68 51.832 431.032 53.526 431.736 54.978C432.484 56.386 433.54 57.486 434.904 58.278C436.268 59.026 437.852 59.4 439.656 59.4C441.284 59.4 442.758 59.136 444.078 58.608C445.398 58.036 446.542 57.2 447.51 56.1L452.592 61.182C451.052 62.986 449.16 64.35 446.916 65.274C444.716 66.198 442.318 66.66 439.722 66.66ZM460.183 66V34.122H468.829V66H460.183ZM468.829 48.378L465.463 46.134C465.859 42.218 467.003 39.138 468.895 36.894C470.787 34.606 473.515 33.462 477.079 33.462C478.619 33.462 480.005 33.726 481.237 34.254C482.469 34.738 483.591 35.552 484.603 36.696L479.191 42.9C478.707 42.372 478.113 41.976 477.409 41.712C476.749 41.448 475.979 41.316 475.099 41.316C473.251 41.316 471.733 41.91 470.545 43.098C469.401 44.242 468.829 46.002 468.829 48.378Z" fill="black"/>
<path d="M4.976 92V73.8H7.966V92H4.976ZM7.03 84.2V81.47H16.286V84.2H7.03ZM7.03 76.53V73.8H16.728V76.53H7.03ZM24.4346 92.26C23.3772 92.26 22.4326 92.026 21.6006 91.558C20.7859 91.09 20.1446 90.4487 19.6766 89.634C19.2259 88.802 19.0006 87.8487 19.0006 86.774V79.52H21.8606V86.644C21.8606 87.2507 21.9559 87.7707 22.1466 88.204C22.3546 88.62 22.6492 88.9407 23.0306 89.166C23.4292 89.3913 23.8972 89.504 24.4346 89.504C25.2666 89.504 25.8992 89.2613 26.3326 88.776C26.7832 88.2733 27.0086 87.5627 27.0086 86.644V79.52H29.8686V86.774C29.8686 87.866 29.6346 88.828 29.1666 89.66C28.7159 90.4747 28.0832 91.116 27.2686 91.584C26.4539 92.0347 25.5092 92.26 24.4346 92.26ZM32.7442 92V73.28H35.6042V92H32.7442ZM38.7872 92V73.28H41.6472V92H38.7872ZM44.8301 86.722V84.018H53.6441V86.722H44.8301ZM60.8965 92.26C60.2032 92.26 59.5358 92.1733 58.8945 92C58.2532 91.8093 57.6638 91.5493 57.1265 91.22C56.5892 90.8733 56.1212 90.4573 55.7225 89.972L57.5425 88.152C57.9758 88.6547 58.4698 89.036 59.0245 89.296C59.5965 89.5387 60.2378 89.66 60.9485 89.66C61.5898 89.66 62.0752 89.5647 62.4045 89.374C62.7338 89.1833 62.8985 88.906 62.8985 88.542C62.8985 88.1607 62.7425 87.866 62.4305 87.658C62.1185 87.45 61.7112 87.2767 61.2085 87.138C60.7232 86.982 60.2032 86.826 59.6485 86.67C59.1112 86.514 58.5912 86.306 58.0885 86.046C57.6032 85.7687 57.2045 85.396 56.8925 84.928C56.5805 84.46 56.4245 83.8533 56.4245 83.108C56.4245 82.3107 56.6065 81.626 56.9705 81.054C57.3518 80.482 57.8805 80.04 58.5565 79.728C59.2498 79.416 60.0732 79.26 61.0265 79.26C62.0318 79.26 62.9158 79.442 63.6785 79.806C64.4585 80.1527 65.1085 80.6813 65.6285 81.392L63.8085 83.212C63.4445 82.7613 63.0285 82.4233 62.5605 82.198C62.0925 81.9727 61.5552 81.86 60.9485 81.86C60.3765 81.86 59.9345 81.9467 59.6225 82.12C59.3105 82.2933 59.1545 82.5447 59.1545 82.874C59.1545 83.2207 59.3105 83.4893 59.6225 83.68C59.9345 83.8707 60.3332 84.0353 60.8185 84.174C61.3212 84.3127 61.8412 84.4687 62.3785 84.642C62.9332 84.798 63.4532 85.0233 63.9385 85.318C64.4412 85.5953 64.8485 85.9767 65.1605 86.462C65.4725 86.93 65.6285 87.5453 65.6285 88.308C65.6285 89.5213 65.2038 90.4833 64.3545 91.194C63.5052 91.9047 62.3525 92.26 60.8965 92.26ZM69.8844 92V74.32H72.7444V92H69.8844ZM66.8944 82.12V79.52H75.7344V82.12H66.8944ZM82.6831 92.26C81.5564 92.26 80.5338 91.974 79.6151 91.402C78.7138 90.83 77.9944 90.0587 77.4571 89.088C76.9371 88.1 76.6771 86.9993 76.6771 85.786C76.6771 84.5553 76.9371 83.4547 77.4571 82.484C77.9944 81.496 78.7138 80.716 79.6151 80.144C80.5338 79.5547 81.5564 79.26 82.6831 79.26C83.6364 79.26 84.4771 79.468 85.2051 79.884C85.9504 80.2827 86.5398 80.8373 86.9731 81.548C87.4064 82.2587 87.6231 83.0647 87.6231 83.966V87.554C87.6231 88.4553 87.4064 89.2613 86.9731 89.972C86.5571 90.6827 85.9764 91.246 85.2311 91.662C84.4858 92.0607 83.6364 92.26 82.6831 92.26ZM83.1511 89.556C84.2084 89.556 85.0578 89.2007 85.6991 88.49C86.3578 87.7793 86.6871 86.8693 86.6871 85.76C86.6871 85.0147 86.5398 84.356 86.2451 83.784C85.9504 83.212 85.5344 82.77 84.9971 82.458C84.4771 82.1287 83.8618 81.964 83.1511 81.964C82.4578 81.964 81.8424 82.1287 81.3051 82.458C80.7851 82.77 80.3691 83.212 80.0571 83.784C79.7624 84.356 79.6151 85.0147 79.6151 85.76C79.6151 86.5053 79.7624 87.164 80.0571 87.736C80.3691 88.308 80.7851 88.7587 81.3051 89.088C81.8424 89.4 82.4578 89.556 83.1511 89.556ZM86.5051 92V88.646L86.9991 85.604L86.5051 82.588V79.52H89.3651V92H86.5051ZM98.2851 92.26C97.0545 92.26 95.9365 91.974 94.9311 91.402C93.9431 90.83 93.1631 90.05 92.5911 89.062C92.0191 88.074 91.7331 86.9733 91.7331 85.76C91.7331 84.5293 92.0191 83.4287 92.5911 82.458C93.1631 81.47 93.9431 80.69 94.9311 80.118C95.9365 79.546 97.0545 79.26 98.2851 79.26C99.2558 79.26 100.157 79.4507 100.989 79.832C101.838 80.196 102.558 80.7247 103.147 81.418L101.275 83.316C100.911 82.8827 100.469 82.562 99.9491 82.354C99.4465 82.1287 98.8918 82.016 98.2851 82.016C97.5745 82.016 96.9418 82.1807 96.3871 82.51C95.8498 82.822 95.4251 83.2553 95.1131 83.81C94.8185 84.3647 94.6711 85.0147 94.6711 85.76C94.6711 86.488 94.8185 87.138 95.1131 87.71C95.4251 88.2647 95.8498 88.7067 96.3871 89.036C96.9418 89.348 97.5745 89.504 98.2851 89.504C98.8918 89.504 99.4465 89.4 99.9491 89.192C100.469 88.9667 100.911 88.6373 101.275 88.204L103.147 90.102C102.558 90.7953 101.838 91.3327 100.989 91.714C100.157 92.078 99.2558 92.26 98.2851 92.26ZM113.139 92L107.861 85.63L113.113 79.52H116.519L110.487 86.384L110.617 84.746L116.779 92H113.139ZM105.209 92V73.28H108.069V92H105.209ZM124.083 92V73.8H127.073V92H124.083ZM126.137 92V89.27H136.329V92H126.137ZM126.137 84.018V81.392H135.445V84.018H126.137ZM126.137 76.53V73.8H136.199V76.53H126.137ZM147.583 92V84.798C147.583 83.966 147.315 83.2813 146.777 82.744C146.257 82.2067 145.581 81.938 144.749 81.938C144.195 81.938 143.701 82.0593 143.267 82.302C142.834 82.5447 142.496 82.8827 142.253 83.316C142.011 83.7493 141.889 84.2433 141.889 84.798L140.771 84.174C140.771 83.2207 140.979 82.38 141.395 81.652C141.811 80.9067 142.383 80.326 143.111 79.91C143.857 79.4767 144.689 79.26 145.607 79.26C146.543 79.26 147.375 79.5027 148.103 79.988C148.831 80.456 149.403 81.0713 149.819 81.834C150.235 82.5793 150.443 83.3593 150.443 84.174V92H147.583ZM139.029 92V79.52H141.889V92H139.029ZM158.55 97.46C157.232 97.46 156.08 97.2173 155.092 96.732C154.104 96.264 153.306 95.5967 152.7 94.73L154.572 92.858C155.074 93.482 155.646 93.95 156.288 94.262C156.929 94.574 157.7 94.73 158.602 94.73C159.728 94.73 160.621 94.4353 161.28 93.846C161.938 93.274 162.268 92.4853 162.268 91.48V88.412L162.762 85.656L162.268 82.874V79.52H165.128V91.48C165.128 92.676 164.85 93.716 164.296 94.6C163.741 95.5013 162.97 96.2033 161.982 96.706C160.994 97.2087 159.85 97.46 158.55 97.46ZM158.42 91.74C157.31 91.74 156.305 91.4713 155.404 90.934C154.52 90.3793 153.818 89.6253 153.298 88.672C152.795 87.7187 152.544 86.6527 152.544 85.474C152.544 84.2953 152.795 83.238 153.298 82.302C153.818 81.366 154.52 80.6293 155.404 80.092C156.305 79.5373 157.31 79.26 158.42 79.26C159.408 79.26 160.274 79.4593 161.02 79.858C161.765 80.2567 162.346 80.8113 162.762 81.522C163.178 82.2153 163.386 83.03 163.386 83.966V87.034C163.386 87.9527 163.169 88.7673 162.736 89.478C162.32 90.1887 161.739 90.7433 160.994 91.142C160.248 91.5407 159.39 91.74 158.42 91.74ZM158.992 89.036C159.685 89.036 160.292 88.8887 160.812 88.594C161.332 88.2993 161.73 87.892 162.008 87.372C162.302 86.8347 162.45 86.2107 162.45 85.5C162.45 84.7893 162.302 84.174 162.008 83.654C161.73 83.1167 161.332 82.7007 160.812 82.406C160.292 82.1113 159.685 81.964 158.992 81.964C158.298 81.964 157.683 82.1113 157.146 82.406C156.626 82.7007 156.218 83.1167 155.924 83.654C155.629 84.174 155.482 84.7893 155.482 85.5C155.482 86.1933 155.629 86.8087 155.924 87.346C156.218 87.8833 156.626 88.2993 157.146 88.594C157.683 88.8887 158.298 89.036 158.992 89.036ZM168.331 92V79.52H171.191V92H168.331ZM169.761 77.232C169.275 77.232 168.868 77.0673 168.539 76.738C168.227 76.4087 168.071 76.0013 168.071 75.516C168.071 75.0307 168.227 74.6233 168.539 74.294C168.868 73.9647 169.275 73.8 169.761 73.8C170.263 73.8 170.671 73.9647 170.983 74.294C171.295 74.6233 171.451 75.0307 171.451 75.516C171.451 76.0013 171.295 76.4087 170.983 76.738C170.671 77.0673 170.263 77.232 169.761 77.232ZM182.953 92V84.798C182.953 83.966 182.684 83.2813 182.147 82.744C181.627 82.2067 180.951 81.938 180.119 81.938C179.564 81.938 179.07 82.0593 178.637 82.302C178.203 82.5447 177.865 82.8827 177.623 83.316C177.38 83.7493 177.259 84.2433 177.259 84.798L176.141 84.174C176.141 83.2207 176.349 82.38 176.765 81.652C177.181 80.9067 177.753 80.326 178.481 79.91C179.226 79.4767 180.058 79.26 180.977 79.26C181.913 79.26 182.745 79.5027 183.473 79.988C184.201 80.456 184.773 81.0713 185.189 81.834C185.605 82.5793 185.812 83.3593 185.812 84.174V92H182.953ZM174.399 92V79.52H177.259V92H174.399ZM194.517 92.26C193.269 92.26 192.142 91.9827 191.137 91.428C190.149 90.856 189.36 90.076 188.771 89.088C188.199 88.1 187.913 86.9907 187.913 85.76C187.913 84.5293 188.199 83.4287 188.771 82.458C189.343 81.47 190.114 80.69 191.085 80.118C192.073 79.546 193.165 79.26 194.361 79.26C195.522 79.26 196.545 79.5287 197.429 80.066C198.33 80.6033 199.032 81.34 199.535 82.276C200.055 83.212 200.315 84.278 200.315 85.474C200.315 85.682 200.297 85.8987 200.263 86.124C200.245 86.332 200.211 86.566 200.159 86.826H189.915V84.486H198.677L197.611 85.422C197.576 84.6593 197.429 84.018 197.169 83.498C196.909 82.978 196.536 82.5793 196.051 82.302C195.583 82.0247 195.002 81.886 194.309 81.886C193.581 81.886 192.948 82.042 192.411 82.354C191.873 82.666 191.457 83.108 191.163 83.68C190.868 84.2347 190.721 84.902 190.721 85.682C190.721 86.462 190.877 87.1467 191.189 87.736C191.501 88.3253 191.943 88.7847 192.515 89.114C193.087 89.426 193.745 89.582 194.491 89.582C195.132 89.582 195.721 89.4693 196.259 89.244C196.813 89.0187 197.281 88.6893 197.663 88.256L199.483 90.102C198.876 90.8127 198.139 91.35 197.273 91.714C196.406 92.078 195.487 92.26 194.517 92.26ZM208.405 92.26C207.157 92.26 206.031 91.9827 205.025 91.428C204.037 90.856 203.249 90.076 202.659 89.088C202.087 88.1 201.801 86.9907 201.801 85.76C201.801 84.5293 202.087 83.4287 202.659 82.458C203.231 81.47 204.003 80.69 204.973 80.118C205.961 79.546 207.053 79.26 208.249 79.26C209.411 79.26 210.433 79.5287 211.317 80.066C212.219 80.6033 212.921 81.34 213.423 82.276C213.943 83.212 214.203 84.278 214.203 85.474C214.203 85.682 214.186 85.8987 214.151 86.124C214.134 86.332 214.099 86.566 214.047 86.826H203.803V84.486H212.565L211.499 85.422C211.465 84.6593 211.317 84.018 211.057 83.498C210.797 82.978 210.425 82.5793 209.939 82.302C209.471 82.0247 208.891 81.886 208.197 81.886C207.469 81.886 206.837 82.042 206.299 82.354C205.762 82.666 205.346 83.108 205.051 83.68C204.757 84.2347 204.609 84.902 204.609 85.682C204.609 86.462 204.765 87.1467 205.077 87.736C205.389 88.3253 205.831 88.7847 206.403 89.114C206.975 89.426 207.634 89.582 208.379 89.582C209.021 89.582 209.61 89.4693 210.147 89.244C210.702 89.0187 211.17 88.6893 211.551 88.256L213.371 90.102C212.765 90.8127 212.028 91.35 211.161 91.714C210.295 92.078 209.376 92.26 208.405 92.26ZM216.496 92V79.52H219.356V92H216.496ZM219.356 85.058L218.368 84.564C218.368 82.9867 218.715 81.7127 219.408 80.742C220.119 79.754 221.185 79.26 222.606 79.26C223.23 79.26 223.793 79.3727 224.296 79.598C224.799 79.8233 225.267 80.1873 225.7 80.69L223.828 82.614C223.603 82.3713 223.351 82.198 223.074 82.094C222.797 81.99 222.476 81.938 222.112 81.938C221.315 81.938 220.656 82.1893 220.136 82.692C219.616 83.1947 219.356 83.9833 219.356 85.058Z" fill="black"/>
<path d="M428.037 91.232L434.745 84.108C435.299 83.5187 435.75 82.99 436.097 82.522C436.443 82.054 436.695 81.612 436.851 81.196C437.007 80.78 437.085 80.3553 437.085 79.922C437.085 79.1073 436.816 78.4747 436.279 78.024C435.759 77.556 435.091 77.322 434.277 77.322C433.41 77.322 432.647 77.5387 431.989 77.972C431.33 78.4053 430.741 79.0813 430.221 80L428.141 78.284C428.851 77.0533 429.727 76.126 430.767 75.502C431.807 74.8607 433.011 74.54 434.381 74.54C435.507 74.54 436.495 74.7653 437.345 75.216C438.194 75.6667 438.853 76.2993 439.321 77.114C439.789 77.9113 440.023 78.8387 440.023 79.896C440.023 80.6587 439.927 81.3433 439.737 81.95C439.563 82.5393 439.26 83.1373 438.827 83.744C438.393 84.3333 437.795 85.0267 437.033 85.824L431.885 91.154L428.037 91.232ZM428.037 93V91.232L430.611 90.322H440.387V93H428.037ZM449.929 93.26C448.56 93.26 447.303 92.8787 446.159 92.116C445.032 91.336 444.131 90.244 443.455 88.84C442.779 87.436 442.441 85.7807 442.441 83.874C442.441 81.9673 442.77 80.3207 443.429 78.934C444.105 77.53 445.006 76.4467 446.133 75.684C447.26 74.9213 448.508 74.54 449.877 74.54C451.264 74.54 452.52 74.9213 453.647 75.684C454.774 76.4467 455.666 77.53 456.325 78.934C457.001 80.3207 457.339 81.976 457.339 83.9C457.339 85.8067 457.001 87.462 456.325 88.866C455.666 90.27 454.774 91.3533 453.647 92.116C452.538 92.8787 451.298 93.26 449.929 93.26ZM449.877 90.452C450.778 90.452 451.558 90.2093 452.217 89.724C452.876 89.2387 453.387 88.5107 453.751 87.54C454.132 86.5693 454.323 85.3473 454.323 83.874C454.323 82.418 454.132 81.2047 453.751 80.234C453.387 79.2633 452.867 78.544 452.191 78.076C451.532 77.5907 450.761 77.348 449.877 77.348C448.993 77.348 448.213 77.5907 447.537 78.076C446.878 78.544 446.367 79.2633 446.003 80.234C445.639 81.1873 445.457 82.4007 445.457 83.874C445.457 85.3473 445.639 86.5693 446.003 87.54C446.367 88.5107 446.878 89.2387 447.537 89.724C448.213 90.2093 448.993 90.452 449.877 90.452ZM466.966 93.26C465.597 93.26 464.34 92.8787 463.196 92.116C462.069 91.336 461.168 90.244 460.492 88.84C459.816 87.436 459.478 85.7807 459.478 83.874C459.478 81.9673 459.807 80.3207 460.466 78.934C461.142 77.53 462.043 76.4467 463.17 75.684C464.297 74.9213 465.545 74.54 466.914 74.54C468.301 74.54 469.557 74.9213 470.684 75.684C471.811 76.4467 472.703 77.53 473.362 78.934C474.038 80.3207 474.376 81.976 474.376 83.9C474.376 85.8067 474.038 87.462 473.362 88.866C472.703 90.27 471.811 91.3533 470.684 92.116C469.575 92.8787 468.335 93.26 466.966 93.26ZM466.914 90.452C467.815 90.452 468.595 90.2093 469.254 89.724C469.913 89.2387 470.424 88.5107 470.788 87.54C471.169 86.5693 471.36 85.3473 471.36 83.874C471.36 82.418 471.169 81.2047 470.788 80.234C470.424 79.2633 469.904 78.544 469.228 78.076C468.569 77.5907 467.798 77.348 466.914 77.348C466.03 77.348 465.25 77.5907 464.574 78.076C463.915 78.544 463.404 79.2633 463.04 80.234C462.676 81.1873 462.494 82.4007 462.494 83.874C462.494 85.3473 462.676 86.5693 463.04 87.54C463.404 88.5107 463.915 89.2387 464.574 89.724C465.25 90.2093 466.03 90.452 466.914 90.452ZM479.765 93V74.8H482.703V93H479.765ZM476.125 77.478V74.8H482.443V77.478H476.125Z" fill="black"/>
</svg>
